<svg version="1.1" id="Layer_1" xmlns="http://www.w3.org/2000/svg" xmlns:xlink="http://www.w3.org/1999/xlink" x="0px" y="0px"
	 width="100%" viewBox="0 0 2048 2048" enable-background="new 0 0 2048 2048" xml:space="preserve">
<path fill="#000000" opacity="1.000000" stroke="none" 
	d="
M930.000000,2049.000000 
	C620.000000,2049.000000 310.500000,2049.000000 1.000000,2049.000000 
	C1.000000,1366.333374 1.000000,683.666687 1.000000,1.000000 
	C683.666687,1.000000 1366.333374,1.000000 2049.000000,1.000000 
	C2049.000000,683.666687 2049.000000,1366.333374 2049.000000,2049.000000 
	C1676.166626,2049.000000 1303.333374,2049.000000 930.000000,2049.000000 
M565.988953,1302.926758 
	C569.729553,1311.299072 573.112427,1319.856201 577.317810,1327.988159 
	C581.046753,1335.198853 585.742493,1341.905151 589.915100,1348.891602 
	C594.858704,1357.169189 599.385559,1365.714355 604.674622,1373.761353 
	C609.697571,1381.403076 615.494995,1388.533936 620.909058,1395.921021 
	C628.216614,1405.891968 635.075195,1416.225586 642.874023,1425.794189 
	C651.922852,1436.896484 661.739868,1447.375977 671.303589,1458.054077 
	C677.491516,1464.962891 683.711914,1471.849487 690.119141,1478.553589 
	C697.636414,1486.419067 704.430115,1494.889404 713.836853,1501.003174 
	C720.698608,1505.462769 726.037781,1512.200684 732.413757,1517.491577 
	C737.868286,1522.017700 743.760193,1526.033691 749.591919,1530.083374 
	C754.573364,1533.542847 759.594666,1536.994263 764.868408,1539.970947 
	C771.778870,1543.870972 778.924438,1547.361450 786.023987,1550.918335 
	C794.861633,1555.345703 803.700562,1559.777710 812.642090,1563.988647 
	C819.938477,1567.424683 827.386292,1570.539307 834.767151,1573.795776 
	C841.266724,1576.663452 847.776794,1579.507568 854.263550,1582.403809 
	C861.337036,1585.562012 868.348206,1588.863403 875.464294,1591.921631 
	C880.583862,1594.121826 885.820557,1596.052246 891.023621,1598.054688 
	C896.508179,1600.165771 902.039368,1602.157593 907.505310,1604.315430 
	C913.796387,1606.799072 919.962036,1609.619141 926.320435,1611.909424 
	C934.653992,1614.911133 943.148804,1617.462158 951.525452,1620.348877 
	C958.522583,1622.760132 965.338074,1625.763550 972.436096,1627.800293 
	C981.035950,1630.267700 989.850952,1631.982910 998.567139,1634.047974 
	C1001.601440,1634.766846 1004.614624,1635.573730 1007.644165,1636.313110 
	C1012.718994,1637.551880 1017.786621,1638.825195 1022.885193,1639.958496 
	C1024.318726,1640.277222 1025.898438,1639.947021 1027.327026,1640.277954 
	C1032.292114,1641.427612 1037.179688,1642.943481 1042.174072,1643.927124 
	C1047.109009,1644.899170 1052.189941,1645.140869 1057.113770,1646.155029 
	C1065.644287,1647.912842 1074.066772,1650.199951 1082.605347,1651.912476 
	C1087.744873,1652.943237 1093.024048,1653.263428 1098.229492,1653.982422 
	C1107.661743,1655.285034 1117.108643,1657.897705 1126.508789,1657.726929 
	C1146.966797,1657.355469 1167.519653,1660.258423 1187.915283,1656.114990 
	C1194.415527,1654.794556 1201.145752,1654.463989 1207.793823,1654.057007 
	C1213.936279,1653.681030 1220.109619,1653.809204 1226.809692,1653.563110 
	C1237.561768,1653.044067 1248.313599,1652.516968 1259.066284,1652.011230 
	C1261.892456,1651.878174 1264.746826,1652.016968 1267.545288,1651.677368 
	C1276.970703,1650.534302 1286.366943,1649.149170 1295.793579,1648.017456 
	C1302.964844,1647.156494 1310.256714,1647.028076 1317.332397,1645.704712 
	C1328.975098,1643.526978 1340.515503,1640.768555 1352.044556,1638.025879 
	C1362.960449,1635.429077 1373.925415,1632.930786 1384.652954,1629.677246 
	C1398.330933,1625.529175 1411.838379,1620.798462 1425.334229,1616.075806 
	C1440.672974,1610.708496 1455.959839,1605.185425 1471.192139,1599.522461 
	C1486.588013,1593.798828 1501.986206,1588.059326 1517.203125,1581.882935 
	C1530.272217,1576.578613 1543.619751,1571.598999 1555.871094,1564.738281 
	C1569.266235,1557.237549 1581.559082,1547.763550 1594.304932,1539.109253 
	C1611.119507,1527.692139 1627.976685,1516.335693 1644.686523,1504.766846 
	C1659.413818,1494.570435 1673.611450,1483.706665 1686.134521,1470.781860 
	C1690.033203,1466.758057 1694.335693,1463.110840 1698.587402,1459.446655 
	C1711.590698,1448.240234 1723.786987,1436.680054 1731.287231,1420.516846 
	C1736.260742,1409.798828 1743.848267,1400.274536 1750.446533,1390.335938 
	C1755.968018,1382.019043 1761.881348,1373.961670 1767.379883,1365.630127 
	C1772.159424,1358.387573 1776.507324,1350.861694 1781.217285,1343.571655 
	C1786.726074,1335.044800 1793.154907,1327.025513 1797.868896,1318.091675 
	C1805.708862,1303.233521 1812.295654,1287.719849 1819.797485,1272.675293 
	C1825.851562,1260.533936 1832.932251,1248.891724 1838.706177,1236.627319 
	C1843.396362,1226.664795 1847.899780,1216.425903 1848.051025,1205.004761 
	C1848.065308,1203.927734 1848.592896,1202.824463 1849.022339,1201.791748 
	C1851.891479,1194.890137 1856.182251,1188.222168 1857.310547,1181.053345 
	C1858.476562,1173.644165 1857.600098,1165.501953 1855.779175,1158.134644 
	C1853.273560,1147.996704 1845.809814,1141.114502 1836.827271,1135.967163 
	C1829.755493,1131.914917 1822.053467,1132.133179 1814.244995,1131.864258 
	C1806.270752,1131.589478 1798.360229,1129.743652 1790.380981,1129.267578 
	C1781.029175,1128.709351 1771.632935,1128.767822 1762.256958,1128.807861 
	C1758.847534,1128.822388 1755.417969,1130.017822 1752.038574,1129.849731 
	C1746.980103,1129.598267 1741.957275,1128.621338 1736.920776,1127.942627 
	C1736.429199,1127.876465 1735.949707,1127.727051 1735.460815,1127.636108 
	C1728.919556,1126.418945 1722.405884,1125.013672 1715.827881,1124.045532 
	C1709.336792,1123.090210 1702.757568,1122.737915 1696.261841,1121.807983 
	C1692.721313,1121.301025 1689.278564,1120.123901 1685.783447,1119.283813 
	C1678.379150,1117.504395 1670.960815,1115.782959 1663.565552,1113.967529 
	C1659.781372,1113.038452 1655.901245,1112.293213 1652.302856,1110.864624 
	C1647.304932,1108.880493 1642.535889,1106.321777 1637.659668,1104.028564 
	C1631.796509,1101.271362 1625.210571,1101.186035 1619.246948,1099.455444 
	C1607.034668,1095.911377 1594.774048,1091.956055 1584.025024,1084.424316 
	C1573.889282,1077.322388 1561.167480,1075.481934 1551.109497,1067.288208 
	C1537.589966,1056.274414 1521.295044,1048.912476 1508.311523,1036.904907 
	C1503.497437,1032.452515 1498.228027,1028.494385 1493.199707,1024.270996 
	C1487.371704,1019.375977 1481.583008,1014.434204 1475.772827,1009.517883 
	C1464.474365,999.957458 1453.041504,990.550537 1441.913208,980.795959 
	C1432.616943,972.647156 1423.812622,963.937805 1414.532959,955.769165 
	C1407.503052,949.581116 1399.887451,944.058350 1392.858276,937.869751 
	C1384.188354,930.236633 1375.939697,922.127136 1367.347778,914.402832 
	C1361.850952,909.460999 1356.316284,904.493652 1350.345947,900.161682 
	C1341.063354,893.426331 1331.270996,887.396545 1321.931274,880.735840 
	C1314.833862,875.674316 1308.294556,869.826843 1301.169067,864.808838 
	C1288.981323,856.226074 1276.638062,847.851685 1264.156372,839.701965 
	C1251.871338,831.680603 1239.281494,824.127686 1226.921021,816.219849 
	C1215.625244,808.993042 1204.519287,801.469177 1193.213257,794.258667 
	C1184.261353,788.549500 1175.408569,782.587280 1166.012451,777.697205 
	C1154.622314,771.769287 1142.653198,766.964355 1131.034668,761.462036 
	C1120.458496,756.453308 1110.259521,750.568787 1099.455933,746.139343 
	C1084.724487,740.099487 1069.234619,735.847229 1054.700195,729.406189 
	C1038.634155,722.286499 1021.616699,718.818909 1004.876587,714.371399 
	C993.087891,711.239380 980.763855,710.153320 968.716431,707.948730 
	C963.938599,707.074463 959.171692,705.920410 954.561951,704.401794 
	C948.560425,702.424744 942.738586,699.908264 936.805359,697.716003 
	C930.771729,695.486511 924.050964,694.993713 919.085510,690.113037 
	C916.759399,687.826599 914.171448,685.648926 911.343933,684.059204 
	C902.108582,678.866516 896.291504,670.451172 890.883850,661.930115 
	C888.200745,657.702209 887.561829,652.193604 885.891235,647.300903 
	C884.685791,643.770508 882.667725,640.397034 882.119629,636.785522 
	C880.471802,625.926636 879.683167,614.934875 877.953857,604.091553 
	C876.442139,594.612793 874.687500,585.096252 872.001038,575.899902 
	C868.268433,563.122131 863.575562,550.624329 859.274353,538.013245 
	C855.516052,526.994080 851.747314,515.978394 847.951904,504.971954 
	C845.472412,497.781616 843.503174,490.344482 840.285400,483.497253 
	C836.142578,474.681763 831.190674,466.219543 826.187439,457.843964 
	C822.239502,451.234802 818.030884,444.719238 813.309143,438.651550 
	C808.367249,432.301086 802.767212,426.448395 797.266052,420.554352 
	C794.949158,418.072052 792.256531,415.899445 789.545654,413.834106 
	C783.257385,409.043182 776.891968,404.350861 770.487915,399.715149 
	C762.265930,393.763489 754.364502,387.227814 745.602661,382.203491 
	C737.187134,377.377808 727.854004,374.149933 718.915894,370.238800 
	C710.257202,366.449921 701.691895,362.417236 692.887695,359.001831 
	C686.819397,356.647675 680.445068,355.049347 674.150818,353.319611 
	C667.298828,351.436676 660.356628,348.208923 653.496643,348.315918 
	C622.474670,348.799713 591.369873,345.547729 560.427063,349.972168 
	C551.384521,351.265137 542.346863,352.592346 533.306580,353.901337 
	C523.943237,355.257141 514.533386,356.357178 505.232330,358.053864 
	C499.166840,359.160431 493.001007,360.507080 487.335236,362.847717 
	C476.086334,367.494843 465.006989,372.615143 454.132324,378.085968 
	C445.022552,382.668945 436.041443,387.625214 427.496460,393.175323 
	C420.927887,397.441742 415.145630,402.913300 408.978699,407.804779 
	C401.135345,414.026031 392.516266,419.479584 385.580139,426.581238 
	C376.874725,435.494354 369.435669,445.662262 361.636536,455.437408 
	C354.195496,464.763641 346.994354,474.281189 339.687012,483.714050 
	C337.173096,486.959167 334.134613,489.925751 332.240814,493.499237 
	C326.822937,503.722595 321.448242,514.009827 316.857819,524.618652 
	C312.717499,534.187134 309.064270,544.053162 306.247742,554.083252 
	C303.441895,564.075378 301.747070,574.399902 299.931488,584.643616 
	C298.336365,593.643738 297.248199,602.733704 295.042603,611.963623 
	C289.459564,612.016541 284.395569,612.502258 279.060974,615.599731 
	C270.438477,620.606384 260.714630,623.691162 251.551727,627.801270 
	C246.005386,630.289185 240.720398,633.359497 235.174667,635.848877 
	C226.015488,639.960327 216.715271,643.756348 207.523224,647.796143 
	C201.526733,650.431519 195.660538,653.364136 189.657471,655.983643 
	C179.863785,660.257080 169.936035,664.228394 160.195129,668.616333 
	C150.706696,672.890625 141.351852,677.466492 131.997406,682.030945 
	C127.225571,684.359375 122.122627,686.361328 117.995857,689.572876 
	C112.505356,693.845703 109.550674,699.997681 110.081337,707.207825 
	C110.294876,710.109131 111.385887,712.938293 111.979820,715.820496 
	C113.566010,723.517883 119.437355,727.774658 125.911339,729.659241 
	C132.841614,731.676697 140.461136,731.329956 147.781113,732.001099 
	C148.933716,732.106873 150.134018,731.968567 151.242218,732.234741 
	C156.197189,733.424744 161.080688,734.963379 166.078186,735.911072 
	C171.318298,736.904785 176.671661,737.285156 181.951370,738.091675 
	C185.762894,738.673828 189.556641,739.417969 193.319260,740.263611 
	C198.452133,741.417358 203.505844,742.962708 208.671249,743.921265 
	C213.937073,744.898499 219.310410,745.281006 224.611099,746.091187 
	C228.173889,746.635803 231.715485,747.372681 235.224823,748.200562 
	C240.181305,749.369812 245.050232,750.966187 250.046783,751.894531 
	C255.472900,752.902710 261.014954,753.269836 266.482300,754.079407 
	C270.049774,754.607605 273.596436,755.329834 277.112762,756.137573 
	C282.334869,757.337219 287.479156,758.914490 292.735962,759.913086 
	C297.890686,760.892395 303.156860,761.269592 308.350830,762.063477 
	C311.752319,762.583374 315.115692,763.358215 318.490234,764.047729 
	C324.875916,765.352539 331.257355,766.678101 337.998962,768.609924 
	C343.410034,776.393738 348.647919,784.305420 354.276276,791.928772 
	C361.195312,801.300232 367.689331,811.155334 375.727844,819.488770 
	C386.600464,830.760254 398.559113,841.025757 410.462799,851.244141 
	C416.766235,856.655334 423.634186,861.586609 430.835052,865.707458 
	C435.084869,868.139587 439.422974,869.985779 442.961792,873.667664 
	C447.727448,878.625854 452.923737,883.238098 458.331970,887.494690 
	C466.154602,893.651367 474.428070,899.232300 482.325256,905.298340 
	C487.473053,909.252441 488.192535,915.629395 489.932678,921.302185 
	C492.028717,928.135315 493.499939,935.158264 495.513275,942.019287 
	C496.689728,946.028503 499.540802,949.856445 499.629059,953.810852 
	C499.819305,962.333130 498.712036,970.884277 498.125519,980.140198 
	C496.088440,985.711121 492.324158,991.289551 492.348572,996.851440 
	C492.413391,1011.629883 490.163208,1026.493896 493.806213,1041.273193 
	C495.458557,1047.976562 493.807068,1055.088257 495.662048,1062.202515 
	C497.789062,1070.360107 497.243591,1079.196899 498.070068,1087.718140 
	C498.537231,1092.534302 498.864105,1097.480835 500.257355,1102.063721 
	C502.486969,1109.397583 504.175262,1116.715942 504.030273,1124.405884 
	C504.011627,1125.393677 504.052673,1126.406128 504.246826,1127.370728 
	C505.476929,1133.482788 506.785645,1139.578979 508.011963,1145.691772 
	C508.771210,1149.476318 509.202209,1153.341431 510.184753,1157.063599 
	C511.970062,1163.826904 513.907410,1170.559082 516.065308,1177.212036 
	C517.751770,1182.411255 519.804810,1187.496338 521.816101,1192.584229 
	C523.107239,1195.850342 524.789856,1198.966919 525.990417,1202.262329 
	C527.833374,1207.321411 529.508911,1212.447266 531.078064,1217.598755 
	C532.824951,1223.334106 534.343445,1229.138428 536.016785,1234.896729 
	C537.444031,1239.808350 538.670532,1244.805176 540.511414,1249.560913 
	C541.918152,1253.195068 544.099426,1256.537476 546.022095,1259.961548 
	C547.946350,1263.387939 549.977356,1266.754517 551.964783,1270.937622 
	C554.897583,1277.741211 557.784180,1284.565186 560.781677,1291.340088 
	C562.391052,1294.977783 564.190979,1298.531128 565.988953,1302.926758 
z"/>
<path fill="#003C76" opacity="1.000000" stroke="none" 
	d="
M295.936096,611.783997 
	C297.248199,602.733704 298.336365,593.643738 299.931488,584.643616 
	C301.747070,574.399902 303.441895,564.075378 306.247742,554.083252 
	C309.064270,544.053162 312.717499,534.187134 316.857819,524.618652 
	C321.448242,514.009827 326.822937,503.722595 332.240814,493.499237 
	C334.134613,489.925751 337.173096,486.959167 339.687012,483.714050 
	C346.994354,474.281189 354.195496,464.763641 361.636536,455.437408 
	C369.435669,445.662262 376.874725,435.494354 385.580139,426.581238 
	C392.516266,419.479584 401.135345,414.026031 408.978699,407.804779 
	C415.145630,402.913300 420.927887,397.441742 427.496460,393.175323 
	C436.041443,387.625214 445.022552,382.668945 454.132324,378.085968 
	C465.006989,372.615143 476.086334,367.494843 487.335236,362.847717 
	C493.001007,360.507080 499.166840,359.160431 505.232330,358.053864 
	C514.533386,356.357178 523.943237,355.257141 533.306580,353.901337 
	C542.346863,352.592346 551.384521,351.265137 560.427063,349.972168 
	C591.369873,345.547729 622.474670,348.799713 653.496643,348.315918 
	C660.356628,348.208923 667.298828,351.436676 674.150818,353.319611 
	C680.445068,355.049347 686.819397,356.647675 692.887695,359.001831 
	C701.691895,362.417236 710.257202,366.449921 718.915894,370.238800 
	C727.854004,374.149933 737.187134,377.377808 745.602661,382.203491 
	C754.364502,387.227814 762.265930,393.763489 770.487915,399.715149 
	C776.891968,404.350861 783.257385,409.043182 789.545654,413.834106 
	C792.256531,415.899445 794.949158,418.072052 797.266052,420.554352 
	C802.767212,426.448395 808.367249,432.301086 813.309143,438.651550 
	C818.030884,444.719238 822.239502,451.234802 826.187439,457.843964 
	C831.190674,466.219543 836.142578,474.681763 840.285400,483.497253 
	C843.503174,490.344482 845.472412,497.781616 847.951904,504.971954 
	C851.747314,515.978394 855.516052,526.994080 859.274353,538.013245 
	C863.575562,550.624329 868.268433,563.122131 872.001038,575.899902 
	C874.687500,585.096252 876.442139,594.612793 877.953857,604.091553 
	C879.683167,614.934875 880.471802,625.926636 882.119629,636.785522 
	C882.667725,640.397034 884.685791,643.770508 885.891235,647.300903 
	C887.561829,652.193604 888.200745,657.702209 890.883850,661.930115 
	C896.291504,670.451172 902.108582,678.866516 911.343933,684.059204 
	C914.171448,685.648926 916.759399,687.826599 919.085510,690.113037 
	C924.050964,694.993713 930.771729,695.486511 936.805359,697.716003 
	C942.738586,699.908264 948.560425,702.424744 954.561951,704.401794 
	C959.171692,705.920410 963.938599,707.074463 968.716431,707.948730 
	C980.763855,710.153320 993.087891,711.239380 1004.876587,714.371399 
	C1021.616699,718.818909 1038.634155,722.286499 1054.700195,729.406189 
	C1069.234619,735.847229 1084.724487,740.099487 1099.455933,746.139343 
	C1110.259521,750.568787 1120.458496,756.453308 1131.034668,761.462036 
	C1142.653198,766.964355 1154.622314,771.769287 1166.012451,777.697205 
	C1175.408569,782.587280 1184.261353,788.549500 1193.213257,794.258667 
	C1204.519287,801.469177 1215.625244,808.993042 1226.921021,816.219849 
	C1239.281494,824.127686 1251.871338,831.680603 1264.156372,839.701965 
	C1276.638062,847.851685 1288.981323,856.226074 1301.169067,864.808838 
	C1308.294556,869.826843 1314.833862,875.674316 1321.931274,880.735840 
	C1331.270996,887.396545 1341.063354,893.426331 1350.345947,900.161682 
	C1356.316284,904.493652 1361.850952,909.460999 1367.347778,914.402832 
	C1375.939697,922.127136 1384.188354,930.236633 1392.858276,937.869751 
	C1399.887451,944.058350 1407.503052,949.581116 1414.532959,955.769165 
	C1423.812622,963.937805 1432.616943,972.647156 1441.913208,980.795959 
	C1453.041504,990.550537 1464.474365,999.957458 1475.772827,1009.517883 
	C1481.583008,1014.434204 1487.371704,1019.375977 1493.199707,1024.270996 
	C1498.228027,1028.494385 1503.497437,1032.452515 1508.311523,1036.904907 
	C1521.295044,1048.912476 1537.589966,1056.274414 1551.109497,1067.288208 
	C1561.167480,1075.481934 1573.889282,1077.322388 1584.025024,1084.424316 
	C1594.774048,1091.956055 1607.034668,1095.911377 1619.246948,1099.455444 
	C1625.210571,1101.186035 1631.796509,1101.271362 1637.659668,1104.028564 
	C1642.535889,1106.321777 1647.304932,1108.880493 1652.302856,1110.864624 
	C1655.901245,1112.293213 1659.781372,1113.038452 1663.565552,1113.967529 
	C1670.960815,1115.782959 1678.379150,1117.504395 1685.783447,1119.283813 
	C1689.278564,1120.123901 1692.721313,1121.301025 1696.261841,1121.807983 
	C1702.757568,1122.737915 1709.336792,1123.090210 1715.827881,1124.045532 
	C1722.405884,1125.013672 1728.919556,1126.418945 1735.460815,1127.636108 
	C1735.949707,1127.727051 1736.429199,1127.876465 1736.920776,1127.942627 
	C1741.957275,1128.621338 1746.980103,1129.598267 1752.038574,1129.849731 
	C1755.417969,1130.017822 1758.847534,1128.822388 1762.256958,1128.807861 
	C1771.632935,1128.767822 1781.029175,1128.709351 1790.380981,1129.267578 
	C1798.360229,1129.743652 1806.270752,1131.589478 1814.244995,1131.864258 
	C1822.053467,1132.133179 1829.755493,1131.914917 1836.827271,1135.967163 
	C1845.809814,1141.114502 1853.273560,1147.996704 1855.779175,1158.134644 
	C1857.600098,1165.501953 1858.476562,1173.644165 1857.310547,1181.053345 
	C1856.182251,1188.222168 1851.891479,1194.890137 1849.022339,1201.791748 
	C1848.592896,1202.824463 1848.065308,1203.927734 1848.051025,1205.004761 
	C1847.899780,1216.425903 1843.396362,1226.664795 1838.706177,1236.627319 
	C1832.932251,1248.891724 1825.851562,1260.533936 1819.797485,1272.675293 
	C1812.295654,1287.719849 1805.708862,1303.233521 1797.868896,1318.091675 
	C1793.154907,1327.025513 1786.726074,1335.044800 1781.217285,1343.571655 
	C1776.507324,1350.861694 1772.159424,1358.387573 1767.379883,1365.630127 
	C1761.881348,1373.961670 1755.968018,1382.019043 1750.446533,1390.335938 
	C1743.848267,1400.274536 1736.260742,1409.798828 1731.287231,1420.516846 
	C1723.786987,1436.680054 1711.590698,1448.240234 1698.587402,1459.446655 
	C1694.335693,1463.110840 1690.033203,1466.758057 1686.134521,1470.781860 
	C1673.611450,1483.706665 1659.413818,1494.570435 1644.686523,1504.766846 
	C1627.976685,1516.335693 1611.119507,1527.692139 1594.304932,1539.109253 
	C1581.559082,1547.763550 1569.266235,1557.237549 1555.871094,1564.738281 
	C1543.619751,1571.598999 1530.272217,1576.578613 1517.203125,1581.882935 
	C1501.986206,1588.059326 1486.588013,1593.798828 1471.192139,1599.522461 
	C1455.959839,1605.185425 1440.672974,1610.708496 1425.334229,1616.075806 
	C1411.838379,1620.798462 1398.330933,1625.529175 1384.652954,1629.677246 
	C1373.925415,1632.930786 1362.960449,1635.429077 1352.044556,1638.025879 
	C1340.515503,1640.768555 1328.975098,1643.526978 1317.332397,1645.704712 
	C1310.256714,1647.028076 1302.964844,1647.156494 1295.793579,1648.017456 
	C1286.366943,1649.149170 1276.970703,1650.534302 1267.545288,1651.677368 
	C1264.746826,1652.016968 1261.892456,1651.878174 1259.066284,1652.011230 
	C1248.313599,1652.516968 1237.561768,1653.044067 1226.314453,1653.394043 
	C1224.615967,1652.505249 1223.412598,1651.785278 1222.265015,1651.098633 
	C1222.503052,1650.439453 1222.520020,1649.993652 1222.733276,1649.859131 
	C1236.894775,1640.918701 1237.200562,1627.020996 1234.404663,1613.182007 
	C1232.253418,1602.534180 1227.844727,1592.288818 1223.926025,1582.061401 
	C1210.481201,1546.971313 1189.647217,1515.690674 1172.198364,1482.665649 
	C1164.059082,1467.260864 1155.005859,1452.338257 1146.346069,1437.208984 
	C1139.581055,1425.390015 1132.941528,1413.494995 1125.941772,1401.816284 
	C1121.767822,1394.852539 1117.019531,1388.231934 1112.499878,1381.476929 
	C1111.118774,1379.412842 1109.633911,1377.418213 1108.205933,1375.385376 
	C1102.391235,1367.108032 1096.802002,1358.659912 1090.686523,1350.611328 
	C1086.878174,1345.599121 1081.708740,1341.584961 1078.129028,1336.441650 
	C1062.838379,1314.470947 1047.766357,1292.343994 1032.904053,1270.080688 
	C1023.125549,1255.432983 1014.216064,1240.196655 1004.211731,1225.711304 
	C996.757202,1214.917969 987.111572,1205.550415 980.330566,1194.399292 
	C969.112610,1175.952026 955.309021,1160.034424 939.380798,1145.681152 
	C931.972656,1139.005615 925.012207,1131.832886 917.856873,1124.877197 
	C908.200928,1115.490601 899.106689,1105.426025 888.762085,1096.873169 
	C875.576050,1085.970825 860.847229,1076.926392 847.733398,1065.946533 
	C820.411011,1043.070312 789.410278,1026.114746 757.538147,1011.231689 
	C726.889648,996.920105 695.714600,983.456848 663.287842,973.157593 
	C641.957275,966.382690 620.663879,960.194153 598.253540,958.455078 
	C575.429504,956.683960 552.752625,957.192810 530.024048,960.462097 
	C518.368530,962.138611 509.200012,966.642212 502.318268,976.108459 
	C501.310638,977.494507 499.548676,978.332275 498.135712,979.423706 
	C498.712036,970.884277 499.819305,962.333130 499.629059,953.810852 
	C499.540802,949.856445 496.689728,946.028503 495.513275,942.019287 
	C493.499939,935.158264 492.028717,928.135315 489.932678,921.302185 
	C488.192535,915.629395 487.473053,909.252441 482.325256,905.298340 
	C474.428070,899.232300 466.154602,893.651367 458.331970,887.494690 
	C452.923737,883.238098 447.727448,878.625854 442.961792,873.667664 
	C439.422974,869.985779 435.084869,868.139587 430.835052,865.707458 
	C423.634186,861.586609 416.766235,856.655334 410.462799,851.244141 
	C398.559113,841.025757 386.600464,830.760254 375.727844,819.488770 
	C367.689331,811.155334 361.195312,801.300232 354.276276,791.928772 
	C348.647919,784.305420 343.410034,776.393738 337.942810,767.973145 
	C339.195343,766.208618 340.504028,765.080933 342.022034,763.772888 
	C336.726715,753.535706 331.831573,742.900391 325.895355,732.881958 
	C317.811890,719.239502 310.986023,705.250183 308.419769,689.439880 
	C306.820160,679.584839 304.620514,669.811157 303.408936,659.912964 
	C301.694763,645.908508 300.758667,631.810059 299.186188,617.785767 
	C298.951233,615.690063 297.060730,613.779968 295.936096,611.783997 
z"/>
<path fill="#FE2B22" opacity="1.000000" stroke="none" 
	d="
M498.130615,979.781982 
	C499.548676,978.332275 501.310638,977.494507 502.318268,976.108459 
	C509.200012,966.642212 518.368530,962.138611 530.024048,960.462097 
	C552.752625,957.192810 575.429504,956.683960 598.253540,958.455078 
	C620.663879,960.194153 641.957275,966.382690 663.287842,973.157593 
	C695.714600,983.456848 726.889648,996.920105 757.538147,1011.231689 
	C789.410278,1026.114746 820.411011,1043.070312 847.733398,1065.946533 
	C860.847229,1076.926392 875.576050,1085.970825 888.762085,1096.873169 
	C899.106689,1105.426025 908.200928,1115.490601 917.856873,1124.877197 
	C925.012207,1131.832886 931.972656,1139.005615 939.380798,1145.681152 
	C955.309021,1160.034424 969.112610,1175.952026 980.330566,1194.399292 
	C987.111572,1205.550415 996.757202,1214.917969 1004.211731,1225.711304 
	C1014.216064,1240.196655 1023.125549,1255.432983 1032.904053,1270.080688 
	C1047.766357,1292.343994 1062.838379,1314.470947 1078.129028,1336.441650 
	C1081.708740,1341.584961 1086.878174,1345.599121 1090.686523,1350.611328 
	C1096.802002,1358.659912 1102.391235,1367.108032 1108.205933,1375.385376 
	C1109.633911,1377.418213 1111.118774,1379.412842 1112.499878,1381.476929 
	C1117.019531,1388.231934 1121.767822,1394.852539 1125.941772,1401.816284 
	C1132.941528,1413.494995 1139.581055,1425.390015 1146.346069,1437.208984 
	C1155.005859,1452.338257 1164.059082,1467.260864 1172.198364,1482.665649 
	C1189.647217,1515.690674 1210.481201,1546.971313 1223.926025,1582.061401 
	C1227.844727,1592.288818 1232.253418,1602.534180 1234.404663,1613.182007 
	C1237.200562,1627.020996 1236.894775,1640.918701 1222.733276,1649.859131 
	C1222.520020,1649.993652 1222.503052,1650.439453 1222.265015,1651.098633 
	C1223.412598,1651.785278 1224.615967,1652.505249 1226.044189,1653.470215 
	C1220.109619,1653.809204 1213.936279,1653.681030 1207.793823,1654.057007 
	C1201.145752,1654.463989 1194.415527,1654.794556 1187.915283,1656.114990 
	C1167.519653,1660.258423 1146.966797,1657.355469 1126.508789,1657.726929 
	C1117.108643,1657.897705 1107.661743,1655.285034 1098.229492,1653.982422 
	C1093.024048,1653.263428 1087.744873,1652.943237 1082.605347,1651.912476 
	C1074.066772,1650.199951 1065.644287,1647.912842 1057.113770,1646.155029 
	C1052.189941,1645.140869 1047.109009,1644.899170 1042.174072,1643.927124 
	C1037.179688,1642.943481 1032.292114,1641.427612 1027.327026,1640.277954 
	C1025.898438,1639.947021 1024.318726,1640.277222 1022.885193,1639.958496 
	C1017.786621,1638.825195 1012.718994,1637.551880 1007.644165,1636.313110 
	C1004.614624,1635.573730 1001.601440,1634.766846 998.567139,1634.047974 
	C989.850952,1631.982910 981.035950,1630.267700 972.436096,1627.800293 
	C965.338074,1625.763550 958.522583,1622.760132 951.525452,1620.348877 
	C943.148804,1617.462158 934.653992,1614.911133 926.320435,1611.909424 
	C919.962036,1609.619141 913.796387,1606.799072 907.505310,1604.315430 
	C902.039368,1602.157593 896.508179,1600.165771 891.023621,1598.054688 
	C885.820557,1596.052246 880.583862,1594.121826 875.464294,1591.921631 
	C868.348206,1588.863403 861.337036,1585.562012 854.263550,1582.403809 
	C847.776794,1579.507568 841.266724,1576.663452 834.767151,1573.795776 
	C827.386292,1570.539307 819.938477,1567.424683 812.642090,1563.988647 
	C803.700562,1559.777710 794.861633,1555.345703 786.023987,1550.918335 
	C778.924438,1547.361450 771.778870,1543.870972 764.868408,1539.970947 
	C759.594666,1536.994263 754.573364,1533.542847 749.591919,1530.083374 
	C743.760193,1526.033691 737.868286,1522.017700 732.413757,1517.491577 
	C726.037781,1512.200684 720.698608,1505.462769 713.836853,1501.003174 
	C704.430115,1494.889404 697.636414,1486.419067 690.119141,1478.553589 
	C683.711914,1471.849487 677.491516,1464.962891 671.303589,1458.054077 
	C661.739868,1447.375977 651.922852,1436.896484 642.874023,1425.794189 
	C635.075195,1416.225586 628.216614,1405.891968 620.909058,1395.921021 
	C615.494995,1388.533936 609.697571,1381.403076 604.674622,1373.761353 
	C599.385559,1365.714355 594.858704,1357.169189 589.915100,1348.891602 
	C585.742493,1341.905151 581.046753,1335.198853 577.317810,1327.988159 
	C573.112427,1319.856201 569.729553,1311.299072 565.953979,1302.135498 
	C565.971008,1299.549561 566.610046,1297.508789 565.977783,1296.001099 
	C562.486755,1287.676270 558.735779,1279.457764 554.899902,1271.284546 
	C554.577332,1270.597168 552.971252,1270.512207 551.961487,1270.147339 
	C549.977356,1266.754517 547.946350,1263.387939 546.022095,1259.961548 
	C544.099426,1256.537476 541.918152,1253.195068 540.511414,1249.560913 
	C538.670532,1244.805176 537.444031,1239.808350 536.016785,1234.896729 
	C534.343445,1229.138428 532.824951,1223.334106 531.078064,1217.598755 
	C529.508911,1212.447266 527.833374,1207.321411 525.990417,1202.262329 
	C524.789856,1198.966919 523.107239,1195.850342 521.816101,1192.584229 
	C519.804810,1187.496338 517.751770,1182.411255 516.065308,1177.212036 
	C513.907410,1170.559082 511.970062,1163.826904 510.184753,1157.063599 
	C509.202209,1153.341431 508.771210,1149.476318 508.011963,1145.691772 
	C506.785645,1139.578979 505.476929,1133.482788 504.246826,1127.370728 
	C504.052673,1126.406128 504.011627,1125.393677 504.030273,1124.405884 
	C504.175262,1116.715942 502.486969,1109.397583 500.257355,1102.063721 
	C498.864105,1097.480835 498.537231,1092.534302 498.070068,1087.718140 
	C497.243591,1079.196899 497.789062,1070.360107 495.662048,1062.202515 
	C493.807068,1055.088257 495.458557,1047.976562 493.806213,1041.273193 
	C490.163208,1026.493896 492.413391,1011.629883 492.348572,996.851440 
	C492.324158,991.289551 496.088440,985.711121 498.130615,979.781982 
z"/>
<path fill="#FD2B22" opacity="1.000000" stroke="none" 
	d="
M295.489349,611.873779 
	C297.060730,613.779968 298.951233,615.690063 299.186188,617.785767 
	C300.758667,631.810059 301.694763,645.908508 303.408936,659.912964 
	C304.620514,669.811157 306.820160,679.584839 308.419769,689.439880 
	C310.986023,705.250183 317.811890,719.239502 325.895355,732.881958 
	C331.831573,742.900391 336.726715,753.535706 342.022034,763.772888 
	C340.504028,765.080933 339.195343,766.208618 337.763611,767.665710 
	C331.257355,766.678101 324.875916,765.352539 318.490234,764.047729 
	C315.115692,763.358215 311.752319,762.583374 308.350830,762.063477 
	C303.156860,761.269592 297.890686,760.892395 292.735962,759.913086 
	C287.479156,758.914490 282.334869,757.337219 277.112762,756.137573 
	C273.596436,755.329834 270.049774,754.607605 266.482300,754.079407 
	C261.014954,753.269836 255.472900,752.902710 250.046783,751.894531 
	C245.050232,750.966187 240.181305,749.369812 235.224823,748.200562 
	C231.715485,747.372681 228.173889,746.635803 224.611099,746.091187 
	C219.310410,745.281006 213.937073,744.898499 208.671249,743.921265 
	C203.505844,742.962708 198.452133,741.417358 193.319260,740.263611 
	C189.556641,739.417969 185.762894,738.673828 181.951370,738.091675 
	C176.671661,737.285156 171.318298,736.904785 166.078186,735.911072 
	C161.080688,734.963379 156.197189,733.424744 151.242218,732.234741 
	C150.134018,731.968567 148.933716,732.106873 147.781113,732.001099 
	C140.461136,731.329956 132.841614,731.676697 125.911339,729.659241 
	C119.437355,727.774658 113.566010,723.517883 111.979820,715.820496 
	C111.385887,712.938293 110.294876,710.109131 110.081337,707.207825 
	C109.550674,699.997681 112.505356,693.845703 117.995857,689.572876 
	C122.122627,686.361328 127.225571,684.359375 131.997406,682.030945 
	C141.351852,677.466492 150.706696,672.890625 160.195129,668.616333 
	C169.936035,664.228394 179.863785,660.257080 189.657471,655.983643 
	C195.660538,653.364136 201.526733,650.431519 207.523224,647.796143 
	C216.715271,643.756348 226.015488,639.960327 235.174667,635.848877 
	C240.720398,633.359497 246.005386,630.289185 251.551727,627.801270 
	C260.714630,623.691162 270.438477,620.606384 279.060974,615.599731 
	C284.395569,612.502258 289.459564,612.016541 295.489349,611.873779 
z"/>
<path fill="#D61514" opacity="1.000000" stroke="none" 
	d="
M551.963135,1270.542480 
	C552.971252,1270.512207 554.577332,1270.597168 554.899902,1271.284546 
	C558.735779,1279.457764 562.486755,1287.676270 565.977783,1296.001099 
	C566.610046,1297.508789 565.971008,1299.549561 565.911865,1301.733398 
	C564.190979,1298.531128 562.391052,1294.977783 560.781677,1291.340088 
	C557.784180,1284.565186 554.897583,1277.741211 551.963135,1270.542480 
z"/>
</svg>